Coordinates
version=1
nRows=12
nColumns=33
inDegrees=yes

Units are S.I. units (second, meters, Newtons, ...)
Angles are in degrees.

endheader
time	ground_thorax_rot_x	ground_thorax_rot_y	ground_thorax_rot_z	ground_thorax_tx	ground_thorax_ty	ground_thorax_tz	clav_prot_r	clav_elev_r	scapula_abduction_r	scapula_elevation_r	scapula_upward_rot_r	scapula_winging_r	shoulder_elv_r	plane_of_elev_r	axial_rot_r	elbow_flexion_r	pro_sup_r	wrist_flex_r	wrist_dev_r	clav_prot_l	clav_elev_l	scapula_abduction_l	scapula_elevation_l	scapula_upward_rot_l	scapula_winging_l	shoulder_elv_l	plane_of_elev_l	axial_rot_l	elbow_flexion_l	pro_sup_l	wrist_flex_l	wrist_dev_l
      7.83000000	     28.51414148	     29.65128512	     38.51829591	    -54.39279917	    807.98359608	    -39.58742505	     13.05388103	     34.66518152	     25.81953426	     45.00000000	    -45.00000000	  -1167.56585032	  -4066.60827319	    159.49963425	     24.94760831	   1440.18687236	    168.93663033	     13.65632335	     14.24395948	     -9.24200220	    -45.00000000	    -37.52223606	     45.00000000	    -45.00000000	  -3495.39816496	   -450.24805700	    136.73089844	   -137.22142118	    349.81694379	     40.97823087	     13.02926863	    -16.60161504
      7.84000000	     28.60542455	     29.42986594	     38.28209860	    -56.67612702	    810.33526450	    -39.71717641	     13.06400532	     34.62915920	     25.85886712	     45.00000000	    -45.00000000	  -1167.71732620	  -4066.54526167	    159.47189711	     24.84854478	   1440.10630503	    168.90328521	     13.85014900	     14.22605817	     -9.12445757	    -45.00000000	    -37.66209916	     45.00000000	    -45.00000000	  -3495.28725986	   -450.14021583	    136.69002360	   -136.99847466	    349.76064259	     40.36352644	     13.16416646	    -16.64941769
      7.85000000	     28.69097176	     29.21664857	     38.04955363	    -58.93105141	    812.71078044	    -39.85610701	     13.06982767	     34.56413758	     25.89109309	     45.00000000	    -45.00000000	  -1167.83577139	  -4066.46402886	    159.43795818	     24.76720550	   1440.07877421	    168.81862643	     14.02072904	     14.20582383	     -8.95175451	    -45.00000000	    -37.81047951	     45.00000000	    -45.00000000	  -3495.16465394	   -450.03653779	    136.62961865	   -136.73436960	    349.71119007	     39.75935578	     13.28897515	    -16.69258051
      7.86000000	     28.76888123	     28.99752240	     37.82941421	    -61.15527610	    815.10002243	    -40.00365128	     13.05913827	     34.54619513	     25.91741289	     45.00000000	    -45.00000000	  -1168.00580543	  -4066.41452527	    159.39833933	     24.64600905	   1439.99464116	    168.69809822	     14.20758842	     14.19634391	     -8.85922276	    -45.00000000	    -37.95467302	     45.00000000	    -45.00000000	  -3495.05969079	   -449.92023773	    136.59344354	   -136.49957476	    349.65647949	     39.18050634	     13.39857212	    -16.72622666
      7.87000000	     28.84676865	     28.78932284	     37.61337166	    -63.34811634	    817.49906960	    -40.15960521	     13.05553335	     34.49689091	     25.95898050	     45.00000000	    -45.00000000	  -1168.15809526	  -4066.33627676	    159.37792091	     24.55808076	   1439.96010805	    168.49695112	     14.35772384	     14.18214750	     -8.69304223	    -45.00000000	    -38.09795753	     45.00000000	    -45.00000000	  -3494.94554600	   -449.80290461	    136.51998817	   -136.22963418	    349.63390764	     38.62358156	     13.50543343	    -16.77236174
      7.88000000	     28.92548172	     28.57914660	     37.39645023	    -65.50602664	    819.90405400	    -40.32376903	     13.04389328	     34.45969660	     26.00278750	     45.00000000	    -45.00000000	  -1168.32688654	  -4066.28746690	    159.35107822	     24.47947410	   1439.91589984	    168.21248738	     14.48480294	     14.18066298	     -8.54799833	    -45.00000000	    -38.24414904	     45.00000000	    -45.00000000	  -3494.83457338	   -449.68954104	    136.46373733	   -135.99703307	    349.59261170	     38.10592261	     13.60685320	    -16.81486143
      7.89000000	     28.99324630	     28.35427403	     37.17945081	    -67.62196661	    822.30776201	    -40.49563620	     13.04192964	     34.40866901	     26.02510608	     45.00000000	    -45.00000000	  -1168.45584808	  -4066.23141735	    159.32867532	     24.32804862	   1439.88747395	    167.83972733	     14.56616451	     14.19675574	     -8.39027344	    -45.00000000	    -38.39317570	     45.00000000	    -45.00000000	  -3494.73491468	   -449.57941867	    136.38994518	   -135.72708340	    349.55473950	     37.61410939	     13.70023175	    -16.85089906
      7.90000000	     29.10168662	     28.13205404	     36.96464789	    -69.69358037	    824.70791986	    -40.67523337	     13.02536223	     34.45924161	     26.12015555	     45.00000000	    -45.00000000	  -1168.72052206	  -4066.22620053	    159.24529964	     24.20195812	   1439.83740504	    167.41808278	     14.65183392	     14.21845448	     -8.34991017	    -45.00000000	    -38.49126460	     45.00000000	    -45.00000000	  -3494.63371741	   -449.48248134	    136.36537780	   -135.45069279	    349.54137095	     37.18382534	     13.77465378	    -16.90803441
      7.91000000	     29.12740729	     27.89798708	     36.76431136	    -71.71665331	    827.09912554	    -40.86274031	     13.03051668	     34.34676231	     26.09595413	     45.00000000	    -45.00000000	  -1168.77217750	  -4066.15594471	    159.23495553	     24.09026534	   1439.79815033	    166.92101422	     14.67364892	     14.23692335	     -8.11921052	    -45.00000000	    -38.67183096	     45.00000000	    -45.00000000	  -3494.51649730	   -449.35970872	    136.27964396	   -135.20342560	    349.48661771	     36.78652695	     13.86052038	    -16.93731253
      7.92000000	     29.16662907	     27.70582717	     36.56056629	    -73.68698823	    829.47548548	    -41.05883131	     13.01478912	     34.24710570	     26.09493745	     45.00000000	    -45.00000000	  -1168.86235675	  -4066.08747640	    159.25407865	     24.01339780	   1439.76421147	    166.36812118	     14.68028845	     14.24787877	     -7.89682291	    -45.00000000	    -38.83309474	     45.00000000	    -45.00000000	  -3494.39851000	   -449.22908632	    136.18971875	   -134.98197932	    349.45352007	     36.43192266	     13.93748368	    -16.97298885
      7.93000000	     29.24282501	     27.48937129	     36.37757513	    -75.59822093	    831.82707687	    -41.26453088	     13.01026825	     34.27384406	     26.15295567	     45.00000000	    -45.00000000	  -1169.10070343	  -4066.05945463	    159.18225688	     23.85721534	   1439.67551886	    165.81556028	     14.71343345	     14.27902903	     -7.85512716	    -45.00000000	    -38.92891748	     45.00000000	    -45.00000000	  -3494.30862884	   -449.13861574	    136.16300655	   -134.70865492	    349.46266004	     36.13379343	     13.98563991	    -17.03172343
      7.94000000	     29.26509519	     27.28942089	     36.18234297	    -77.45102174	    834.14910407	    -41.48152970	     12.99204559	     34.16878515	     26.14224734	     45.00000000	    -45.00000000	  -1169.18862623	  -4066.00362119	    159.17526858	     23.80349793	   1439.63281883	    165.23825473	     14.70313005	     14.29301574	     -7.59173931	    -45.00000000	    -39.09389490	     45.00000000	    -45.00000000	  -3494.18046882	   -449.02677945	    136.06007918	   -134.51408016	    349.43313624	     35.88221710	     14.05165362	    -17.07476623
